<svg width="127" height="12" viewBox="0 0 127 12" fill="none" xmlns="http://www.w3.org/2000/svg">
<path d="M3.49833 11H5.19233V2.572H8.04833V1.06H0.684328V2.572H3.49833V11ZM10.863 4.07C9.99498 4.07 9.11298 4.252 8.27298 4.686L8.87498 5.96C9.51898 5.624 10.107 5.456 10.751 5.456C11.787 5.456 12.641 5.974 12.851 7.052H7.86698C7.85298 7.178 7.82498 7.5 7.82498 7.696C7.82498 9.6 8.95898 11.112 11.101 11.112C13.257 11.112 14.447 9.642 14.447 7.64C14.447 5.26 12.809 4.07 10.863 4.07ZM11.101 9.698C10.149 9.698 9.54698 9.194 9.42098 8.312H12.837C12.641 9.152 12.067 9.698 11.101 9.698ZM16.1766 11H17.7446V0.695999H16.1766V11ZM22.5251 4.07C21.6571 4.07 20.7751 4.252 19.9351 4.686L20.5371 5.96C21.1811 5.624 21.7691 5.456 22.4131 5.456C23.4491 5.456 24.3031 5.974 24.5131 7.052H19.5291C19.5151 7.178 19.4871 7.5 19.4871 7.696C19.4871 9.6 20.6211 11.112 22.7631 11.112C24.9191 11.112 26.1091 9.642 26.1091 7.64C26.1091 5.26 24.4711 4.07 22.5251 4.07ZM22.7631 9.698C21.8111 9.698 21.2091 9.194 21.0831 8.312H24.4991C24.3031 9.152 23.7291 9.698 22.7631 9.698ZM31.4788 11.112C33.3828 11.112 34.7968 9.726 34.7968 7.612C34.7968 5.554 33.3828 4.07 31.4928 4.07C30.5968 4.07 29.8548 4.378 29.3228 4.98H29.3088V0.695999H27.7408V11H29.2388V10.09H29.2668C29.7708 10.748 30.4988 11.112 31.4788 11.112ZM31.2408 9.684C30.1208 9.684 29.2388 8.858 29.2388 7.626C29.2388 6.408 30.0508 5.484 31.2268 5.484C32.3188 5.484 33.2008 6.31 33.2008 7.626C33.2008 8.83 32.3888 9.684 31.2408 9.684ZM39.0681 4.07C38.2001 4.07 37.3181 4.252 36.4781 4.686L37.0801 5.96C37.7241 5.624 38.3121 5.456 38.9561 5.456C39.9921 5.456 40.8461 5.974 41.0561 7.052H36.0721C36.0581 7.178 36.0301 7.5 36.0301 7.696C36.0301 9.6 37.1641 11.112 39.3061 11.112C41.4621 11.112 42.6521 9.642 42.6521 7.64C42.6521 5.26 41.0141 4.07 39.0681 4.07ZM39.3061 9.698C38.3541 9.698 37.7521 9.194 37.6261 8.312H41.0421C40.8461 9.152 40.2721 9.698 39.3061 9.698ZM49.9898 11H51.4878L54.2038 4.168H52.5378L50.7598 9.04H50.7458L48.9678 4.168H47.2878L49.9898 11ZM57.7165 4.07C56.8485 4.07 55.9665 4.252 55.1265 4.686L55.7285 5.96C56.3725 5.624 56.9605 5.456 57.6045 5.456C58.6405 5.456 59.4945 5.974 59.7045 7.052H54.7205C54.7065 7.178 54.6785 7.5 54.6785 7.696C54.6785 9.6 55.8125 11.112 57.9545 11.112C60.1105 11.112 61.3005 9.642 61.3005 7.64C61.3005 5.26 59.6625 4.07 57.7165 4.07ZM57.9545 9.698C57.0025 9.698 56.4005 9.194 56.2745 8.312H59.6905C59.4945 9.152 58.9205 9.698 57.9545 9.698ZM66.8883 11H68.5823V4.35H68.5963L71.3123 9.082H72.4183L75.1343 4.35H75.1623V11H76.8563V1.06H75.1623L71.8863 7.01H71.8583L68.5823 1.06H66.8883V11ZM81.7243 4.07C80.8563 4.07 79.9743 4.252 79.1343 4.686L79.7363 5.96C80.3803 5.624 80.9683 5.456 81.6123 5.456C82.6483 5.456 83.5023 5.974 83.7123 7.052H78.7283C78.7143 7.178 78.6863 7.5 78.6863 7.696C78.6863 9.6 79.8203 11.112 81.9623 11.112C84.1183 11.112 85.3083 9.642 85.3083 7.64C85.3083 5.26 83.6703 4.07 81.7243 4.07ZM81.9623 9.698C81.0103 9.698 80.4083 9.194 80.2823 8.312H83.6983C83.5023 9.152 82.9283 9.698 81.9623 9.698ZM86.2866 11H91.9006V9.67H88.4286L88.4146 9.642L91.9566 5.246V4.168H86.5246V5.498H89.7866L89.8006 5.54L86.2866 9.894V11ZM96.0202 11.112C96.8042 11.112 97.5602 10.79 98.1062 10.132L98.1342 10.146V11H99.7022V4.168H98.1342V7.444C98.1342 8.914 97.2942 9.684 96.3842 9.684C95.4462 9.684 95.0262 9.264 95.0262 7.906V4.168H93.4582V8.326C93.4582 10.356 94.5082 11.112 96.0202 11.112ZM101.692 11H103.26V7.57C103.26 6.226 103.96 5.484 105.024 5.484C105.962 5.484 106.508 5.946 106.508 7.388V11H108.076V6.982C108.076 4.924 107.068 4.07 105.57 4.07C104.674 4.07 103.848 4.434 103.288 5.106H103.26V4.168H101.692V11ZM110.089 11H111.657V0.695999H110.089V11ZM116.689 11.112C117.641 11.112 118.369 10.748 118.859 10.09L118.887 10.104V11H120.385V4.168H118.817V4.994L118.789 5.008C118.299 4.392 117.543 4.07 116.675 4.07C114.799 4.07 113.385 5.554 113.385 7.612C113.385 9.726 114.799 11.112 116.689 11.112ZM116.941 9.684C115.779 9.684 114.981 8.83 114.981 7.626C114.981 6.31 115.849 5.484 116.941 5.484C118.061 5.484 118.887 6.408 118.887 7.626C118.887 8.858 118.005 9.684 116.941 9.684ZM122.364 11H123.932V7.766C123.932 6.646 124.604 5.792 125.794 5.792C125.906 5.792 126.088 5.806 126.27 5.82V4.07H126.074C125.248 4.07 124.492 4.476 123.96 5.19H123.932V4.168H122.364V11Z" fill="#333333"/>
</svg>
