<svg width="130" height="30" viewBox="0 0 130 30" fill="none" xmlns="http://www.w3.org/2000/svg">
<path d="M32.3398 20.9756V9.04472H35.2957C35.9387 9.03152 36.5816 9.07671 37.2164 9.17974C37.654 9.25794 38.0728 9.41855 38.4505 9.65302C38.9323 9.966 39.3194 10.4048 39.5698 10.9219C39.8393 11.4822 39.9745 12.0976 39.9647 12.7192C39.9742 13.3899 39.8212 14.0528 39.519 14.6516C39.2533 15.1995 38.8289 15.6547 38.3009 15.9582C37.9379 16.1489 37.5452 16.277 37.1395 16.3371C36.518 16.4222 35.8909 16.4591 35.2638 16.4474H34.5524V20.9814L32.3398 20.9756ZM34.5524 14.3206H35.1984C35.7081 14.3397 36.218 14.2864 36.7127 14.1623C37.0108 14.0843 37.2731 13.9065 37.456 13.6585C37.6422 13.4024 37.7396 13.0924 37.7333 12.7758C37.7426 12.432 37.6464 12.0935 37.4574 11.806C37.2775 11.5421 37.0085 11.3519 36.6996 11.2703C36.2369 11.1836 35.7663 11.1466 35.2957 11.16H34.5524V14.3206Z" fill="black"/>
<path d="M40.8643 20.9758V12.0255H42.8285V12.8965C43.0397 12.5553 43.3251 12.266 43.6633 12.0501C44.0065 11.8821 44.3865 11.8032 44.7681 11.8208H44.9337V13.8867C43.6503 13.9186 43.0091 14.6232 43.01 16.0005V20.9758H40.8643Z" fill="black"/>
<path d="M54.6912 12.0253V20.9756H52.7284V19.8142C52.36 20.2535 51.9047 20.6118 51.3913 20.8668C50.8754 21.0904 50.3172 21.1994 49.7551 21.1862C48.9416 21.1984 48.1396 20.9929 47.4322 20.5909C46.7515 20.1983 46.1943 19.6229 45.8236 18.9301C45.4303 18.1931 45.2305 17.3684 45.2429 16.5331C45.2288 15.6889 45.4285 14.8548 45.8236 14.1086C46.1976 13.4068 46.7603 12.8235 47.4482 12.4245C48.1628 12.0161 48.9742 11.8075 49.7972 11.8206C50.3723 11.8059 50.9433 11.9205 51.4682 12.156C51.9667 12.4053 52.3971 12.772 52.7226 13.2245V12.0253H54.6912ZM49.9917 13.7921C49.6449 13.7827 49.3001 13.8483 48.9808 13.9843C48.6616 14.1204 48.3756 14.3237 48.1421 14.5805C47.6582 15.106 47.4162 15.7738 47.4162 16.5839C47.4162 17.366 47.6621 18.0004 48.1537 18.4873C48.6454 18.9741 49.2828 19.2161 50.0658 19.2132C50.8401 19.2132 51.4668 18.9659 51.9458 18.4713C52.4249 17.9767 52.663 17.3302 52.6601 16.5317C52.6601 15.7225 52.4114 15.0629 51.9139 14.5529C51.6639 14.2996 51.3638 14.1012 51.0329 13.9702C50.702 13.8392 50.3474 13.7786 49.9917 13.7921Z" fill="black"/>
<path d="M63.2478 12.0255H65.2977V19.2845C65.3132 20.0288 65.2352 20.7721 65.0654 21.497C64.9286 22.0452 64.6723 22.5563 64.3149 22.9938C63.4622 24.0304 62.2451 24.5482 60.6636 24.5472C59.6628 24.5721 58.6755 24.3123 57.8166 23.7981C57.0204 23.3089 56.406 22.5727 56.0672 21.7017H58.5077C58.7788 22.0162 59.1152 22.2679 59.4934 22.4392C59.8955 22.5941 60.3243 22.6676 60.7551 22.6556C61.5535 22.6556 62.1604 22.4189 62.5756 21.9456C62.9908 21.4723 63.2173 20.7547 63.2551 19.7926C62.8989 20.2361 62.4538 20.6 61.9484 20.8611C61.4336 21.0958 60.8721 21.2105 60.3064 21.1965C59.5087 21.2081 58.7235 20.9975 58.0387 20.5882C57.3672 20.1814 56.825 19.5924 56.4751 18.8896C56.0933 18.1309 55.901 17.2911 55.9147 16.4418C55.9147 15.1178 56.3329 14.0164 57.1691 13.1376C57.5723 12.708 58.0619 12.3686 58.6056 12.1416C59.1493 11.9147 59.7349 11.8053 60.3239 11.8208C61.6063 11.8208 62.5814 12.2679 63.2492 13.1622L63.2478 12.0255ZM60.5402 13.7923C60.2066 13.7795 59.8743 13.8404 59.5669 13.9707C59.2595 14.1009 58.9846 14.2973 58.7617 14.5458C58.3136 15.0481 58.0891 15.7116 58.0881 16.5362C58.0871 17.3608 58.3146 18.0112 58.7704 18.4874C59.2244 18.9714 59.8356 19.2133 60.6041 19.2133C61.3808 19.2133 62.0021 18.968 62.4638 18.4758C62.9255 17.9837 63.1578 17.326 63.1578 16.4999C63.1578 15.6738 62.9182 15.0365 62.4319 14.5371C61.9455 14.0377 61.3183 13.7923 60.5402 13.7923Z" fill="black"/>
<path d="M66.957 20.9755V12.0252H68.9213V12.8701C69.1904 12.5277 69.534 12.2512 69.926 12.0615C70.3443 11.8884 70.7946 11.8063 71.2471 11.8205C71.7849 11.8013 72.3193 11.9124 72.8049 12.1442C73.2538 12.3956 73.6257 12.7645 73.8807 13.2113C74.1994 12.7651 74.6213 12.4025 75.1103 12.1544C75.6228 11.9221 76.1812 11.809 76.7436 11.8234C77.3866 11.8105 78.024 11.9441 78.6077 12.2139C79.1209 12.451 79.5509 12.8369 79.8418 13.3216C80.1941 13.942 80.3702 14.7725 80.3702 15.8129V20.9784H78.2259V16.0626C78.2346 15.6945 78.2 15.3266 78.1228 14.9665C78.0689 14.7219 77.9552 14.4944 77.7918 14.3045C77.5015 13.9638 77.0862 13.793 76.5462 13.792C75.8261 13.792 75.316 14.0916 75.016 14.6907C74.8321 15.0643 74.7401 15.69 74.7401 16.5679V20.9755H72.59V16.0626C72.59 15.2322 72.456 14.6515 72.1879 14.3205C71.8811 13.9682 71.4387 13.792 70.8609 13.792C70.0992 13.792 69.5838 14.1153 69.3148 14.7618C69.1754 15.1141 69.1057 15.7161 69.1057 16.5679V20.9755H66.957Z" fill="black"/>
<path d="M90.9564 12.0253V20.9756H88.995V19.8142C88.6266 20.2534 88.1713 20.6118 87.6579 20.8667C87.1421 21.0905 86.5838 21.1995 86.0217 21.1861C85.2081 21.1989 84.406 20.9934 83.6988 20.5909C83.0176 20.1989 82.4603 19.6234 82.0902 18.93C81.6962 18.1934 81.4963 17.3684 81.5095 16.5331C81.4954 15.6889 81.6951 14.8548 82.0902 14.1086C82.4642 13.4068 83.0269 12.8235 83.7148 12.4245C84.4296 12.015 85.2415 11.8054 86.0652 11.8177C86.6403 11.803 87.2114 11.9176 87.7363 12.153C88.2366 12.4026 88.6687 12.7704 88.995 13.2245V12.0253H90.9564ZM86.2569 13.7921C85.91 13.7827 85.5652 13.8483 85.246 13.9843C84.9268 14.1204 84.6407 14.3237 84.4073 14.5804C83.9234 15.106 83.6814 15.7738 83.6814 16.5839C83.6814 17.366 83.9272 18.0004 84.4189 18.4872C84.9106 18.9741 85.5479 19.216 86.3309 19.2131C87.1052 19.2131 87.7343 18.9658 88.2183 18.4713C88.7022 17.9767 88.9403 17.3301 88.9325 16.5317C88.9325 15.7225 88.6843 15.0629 88.1878 14.5529C87.9366 14.2987 87.6351 14.0997 87.3026 13.9688C86.9701 13.8378 86.6139 13.7776 86.2569 13.7921Z" fill="black"/>
<path d="M93.0849 20.9758V13.981H92.0439V12.0255H93.0921V9.04492H95.2379V12.0255H96.53V13.981H95.2379V20.9758H93.0849Z" fill="black"/>
<path d="M106.047 17.4591H99.1157C99.2327 17.9793 99.539 18.4373 99.9752 18.744C100.45 19.0693 101.016 19.2351 101.591 19.2172C101.97 19.2295 102.346 19.1607 102.696 19.0154C103.029 18.8509 103.323 18.6156 103.555 18.3258H105.897C105.742 18.7824 105.501 19.2052 105.187 19.5715C104.757 20.0932 104.215 20.5106 103.6 20.792C102.985 21.0734 102.315 21.2116 101.639 21.196C100.985 21.1993 100.337 21.0761 99.7299 20.8331C99.1582 20.6078 98.6353 20.2746 98.1895 19.8517C97.7565 19.4292 97.4112 18.9255 97.1732 18.3694C96.9208 17.7937 96.7917 17.1716 96.7943 16.543C96.7839 15.7071 96.9985 14.8837 97.4157 14.1592C97.8236 13.4464 98.4145 12.8554 99.1274 12.4475C99.8492 12.0297 100.67 11.8131 101.504 11.8203C102.337 11.8081 103.157 12.0224 103.878 12.4402C104.578 12.8477 105.15 13.4432 105.53 14.1592C105.933 14.9187 106.137 15.7676 106.125 16.6272C106.127 16.9064 106.101 17.1851 106.047 17.4591ZM99.0519 15.5718H104.013C103.904 15.0433 103.603 14.5741 103.168 14.255C102.743 13.9462 102.199 13.7919 101.536 13.7919C100.969 13.7701 100.41 13.9287 99.9389 14.2448C99.5006 14.5706 99.1875 15.037 99.0519 15.566V15.5718Z" fill="black"/>
<path d="M113.616 18.0343H116.036C115.716 18.9677 115.117 19.7807 114.322 20.3644C113.525 20.9249 112.57 21.2164 111.597 21.1963C110.957 21.1989 110.323 21.0725 109.732 20.8246C109.165 20.5936 108.647 20.2566 108.207 19.8316C107.774 19.4055 107.429 18.899 107.19 18.3406C106.938 17.7638 106.81 17.1407 106.813 16.5113C106.803 15.6779 107.017 14.857 107.433 14.1347C107.839 13.4265 108.429 12.8412 109.14 12.4405C109.866 12.0258 110.689 11.8119 111.525 11.8206C112.152 11.8183 112.774 11.9345 113.358 12.1632C113.927 12.3847 114.446 12.719 114.883 13.1461C115.141 13.3901 115.37 13.664 115.563 13.962C115.759 14.2946 115.919 14.6475 116.039 15.0145H113.616C113.195 14.1996 112.499 13.7921 111.527 13.7921C111.185 13.7805 110.845 13.8417 110.529 13.9716C110.213 14.1015 109.928 14.2972 109.693 14.5456C109.217 15.0479 108.979 15.6959 108.979 16.4896C108.968 16.8476 109.028 17.2041 109.157 17.5386C109.285 17.8731 109.478 18.1787 109.725 18.4379C109.963 18.6905 110.251 18.8903 110.571 19.0241C110.891 19.1579 111.235 19.2228 111.582 19.2146C111.984 19.2232 112.38 19.1229 112.729 18.9242C113.089 18.7001 113.393 18.3955 113.616 18.0343Z" fill="black"/>
<path d="M117.146 20.9758V9.04492H119.291V12.641C119.915 12.0799 120.731 11.7804 121.569 11.8048C122.177 11.7958 122.778 11.9296 123.324 12.1953C123.823 12.4373 124.241 12.8192 124.526 13.2943C124.728 13.6308 124.871 13.9989 124.949 14.3832C125.04 14.8934 125.081 15.4112 125.071 15.9294V20.9831H122.925V16.4055C122.925 15.459 122.793 14.7873 122.527 14.3905C122.262 13.9936 121.814 13.7942 121.183 13.7923C120.421 13.7923 119.889 14.0919 119.586 14.691C119.392 15.0442 119.296 15.6279 119.296 16.4418V20.9758H117.146Z" fill="black"/>
<path d="M127.548 8.95165V9.24201H127.023V10.4746H126.709V9.24056H126.184V8.9502L127.548 8.95165ZM129.501 8.95165V10.4731H129.187V9.36541L128.676 10.4731H128.472L127.978 9.36977V10.4731H127.664V8.95165H128.133L128.569 9.94468L129.041 8.95165H129.501Z" fill="black"/>
<path d="M7.5 7.5L0 15L7.5 22.5L15 30L22.5 22.5L23.9997 21.0003L17.9994 15L23.9997 8.99971L22.5 7.5L15 0L7.5 7.5Z" fill="#41E063"/>
</svg>
