<svg width="16" height="17" viewBox="0 0 16 17" fill="none" xmlns="http://www.w3.org/2000/svg">
<path d="M11.0003 2.51399C11.0002 1.92742 11.2064 1.3595 11.5827 0.909597C11.9591 0.459692 12.4817 0.156449 13.059 0.052923C13.6364 -0.0506034 14.2318 0.0521793 14.741 0.343288C15.2502 0.634397 15.6409 1.0953 15.8446 1.64534C16.0484 2.19539 16.0522 2.79957 15.8555 3.35216C15.6587 3.90475 15.274 4.37057 14.7685 4.66813C14.263 4.96568 13.669 5.07602 13.0903 4.97984C12.5117 4.88365 11.9853 4.58707 11.6033 4.14199L4.88527 7.26199C5.03971 7.75143 5.03971 8.27655 4.88527 8.76599L11.6033 11.886C12.0071 11.4163 12.5709 11.1133 13.1855 11.0356C13.8 10.958 14.4215 11.1112 14.9294 11.4657C15.4374 11.8201 15.7957 12.3505 15.9349 12.9541C16.0741 13.5577 15.9843 14.1914 15.6829 14.7326C15.3814 15.2737 14.8898 15.6836 14.3033 15.8829C13.7169 16.0823 13.0773 16.0568 12.5085 15.8114C11.9398 15.566 11.4824 15.1183 11.225 14.5549C10.9676 13.9915 10.9285 13.3526 11.1153 12.762L4.39727 9.64199C4.0647 10.0296 3.62142 10.306 3.12704 10.4341C2.63267 10.5622 2.11093 10.5358 1.632 10.3585C1.15308 10.1812 0.739941 9.86142 0.448173 9.44227C0.156404 9.02313 0 8.52468 0 8.01399C0 7.50329 0.156404 7.00484 0.448173 6.5857C0.739941 6.16655 1.15308 5.84682 1.632 5.66951C2.11093 5.49219 2.63267 5.46581 3.12704 5.5939C3.62142 5.72199 4.0647 5.99842 4.39727 6.38599L11.1153 3.26599C11.0388 3.02265 11 2.76905 11.0003 2.51399Z" fill="#828282"/>
</svg>
